<svg id="Capa_1" enable-background="new 0 0 512 512" height="512" viewBox="0 0 512 512" width="512" xmlns="http://www.w3.org/2000/svg"><g><g><path d="m388.14 50h65.36c5.52 0 10 4.48 10 10v432c0 5.52-4.48 10-10 10h-29.499-90.001-190.5c-5.52 0-10-4.48-10-10v-432c0-5.52 4.48-10 10-10h65.36z" fill="#fff"/><path d="m398.14 60v20c0 5.523-4.477 10-10 10h-179.28c-5.523 0-10-4.477-10-10v-20c0-5.523 4.477-10 10-10h32.98l17.236-34.472c1.694-3.388 5.157-5.528 8.944-5.528h60.959c3.788 0 7.25 2.14 8.944 5.528l17.237 34.472h32.98c5.523 0 10 4.477 10 10z" fill="#cfd3df"/><path d="m183.5 183.5h45v45h-45z" fill="#ffcd69"/><path d="m183.5 273.5h45v45h-45z" fill="#a0e5a5"/><path d="m183.5 363.5h45v45h-45z" fill="#ff7d97"/><path d="m48.5 405.801c0 12.427 10.074 22.5 22.5 22.5s22.5-10.073 22.5-22.5v-232.5h-45z" fill="#9ea6bf"/><path d="m87.079 141.886-7.363-13.09c-3.823-6.796-13.608-6.796-17.432 0l-7.363 13.09c-4.21 7.484-6.421 15.926-6.421 24.513v6.902h45v-6.902c0-8.587-2.211-17.029-6.421-24.513z" fill="#cfd3df"/></g><g><path d="m453.5 40c-18.756 0-74.298 0-92.16 0l-14.472-28.942c-3.409-6.821-10.264-11.058-17.889-11.058h-60.959c-7.625 0-14.48 4.237-17.889 11.056l-14.471 28.944c-17.587 0-73.702 0-92.16 0-11.028 0-20 8.972-20 20v432c0 11.028 8.972 20 20 20h190.5c5.523 0 10-4.478 10-10s-4.477-10-10-10h-190.5v-432h45.36v20c0 11.028 8.972 20 20 20h179.28c11.028 0 20-8.972 20-20v-20h45.36v432h-29.499c-5.523 0-10 4.478-10 10s4.477 10 10 10h29.499c11.028 0 20-8.972 20-20v-432c0-11.028-8.972-20-20-20zm-65.36 40h-179.28v-20h32.98c3.788 0 7.251-2.14 8.944-5.527l17.236-34.473 60.959.001 17.236 34.472c1.695 3.387 5.158 5.527 8.945 5.527l32.73-.013c.084.002.165.013.25.013z"/><circle cx="379" cy="502" r="10"/><path d="m238.5 183.5c0-5.523-4.477-10-10-10h-45c-5.523 0-10 4.477-10 10v45c0 5.523 4.477 10 10 10h45c5.523 0 10-4.477 10-10zm-20 35h-25v-25h25z"/><path d="m238.5 273.5c0-5.522-4.477-10-10-10h-45c-5.523 0-10 4.478-10 10v45c0 5.522 4.477 10 10 10h45c5.523 0 10-4.478 10-10zm-20 35h-25v-25h25z"/><path d="m228.5 353.5h-45c-5.523 0-10 4.478-10 10v45c0 5.522 4.477 10 10 10h45c5.523 0 10-4.478 10-10v-45c0-5.522-4.477-10-10-10zm-10 45h-25v-25h25z"/><path d="m268.5 196h75c5.523 0 10-4.477 10-10s-4.477-10-10-10h-75c-5.523 0-10 4.477-10 10s4.477 10 10 10z"/><path d="m268.5 236h145c5.523 0 10-4.477 10-10s-4.477-10-10-10h-145c-5.523 0-10 4.477-10 10s4.477 10 10 10z"/><path d="m268.5 286h75c5.523 0 10-4.478 10-10s-4.477-10-10-10h-75c-5.523 0-10 4.478-10 10s4.477 10 10 10z"/><path d="m268.5 326h145c5.523 0 10-4.478 10-10s-4.477-10-10-10h-145c-5.523 0-10 4.478-10 10s4.477 10 10 10z"/><path d="m268.5 376h75c5.523 0 10-4.478 10-10s-4.477-10-10-10h-75c-5.523 0-10 4.478-10 10s4.477 10 10 10z"/><path d="m423.5 406c0-5.522-4.477-10-10-10h-145c-5.523 0-10 4.478-10 10s4.477 10 10 10h145c5.523 0 10-4.478 10-10z"/><path d="m88.432 123.894c-3.538-6.289-10.217-10.195-17.432-10.195s-13.894 3.906-17.432 10.195l-7.363 13.09c-5.041 8.962-7.706 19.134-7.706 29.415v239.403c0 17.921 14.58 32.5 32.5 32.5s32.5-14.579 32.5-32.5v-239.404c0-10.281-2.665-20.453-7.706-29.415zm-17.432 9.804 7.363 13.09c2.853 5.072 4.551 10.727 5.003 16.514h-24.732c.452-5.786 2.15-11.441 5.003-16.514zm0 284.604c-6.893 0-12.5-5.607-12.5-12.5v-222.5h25v222.5c0 6.892-5.607 12.5-12.5 12.5z"/></g></g></svg>