<svg id="Capa_1" enable-background="new 0 0 512 512" height="512" viewBox="0 0 512 512" width="512" xmlns="http://www.w3.org/2000/svg"><g><g><path d="m512 72.638v366.724c0 5.687-4.615 10.302-10.302 10.302h-491.396c-5.687 0-10.302-4.615-10.302-10.302v-366.724c0-5.687 4.615-10.302 10.302-10.302h491.396c5.687 0 10.302 4.615 10.302 10.302z" fill="#ff9293"/><path d="m512 72.638v366.724c0 5.687-4.615 10.302-10.302 10.302h-123.395c113.979-98.66 111.445-328.061 108.756-387.327h14.639c5.687-.001 10.302 4.614 10.302 10.301z" fill="#ff5677"/><path d="m512 288.471v150.891c0 5.687-4.615 10.302-10.302 10.302h-491.396c-5.687 0-10.302-4.615-10.302-10.302v-150.891z" fill="#22d0ff"/><path d="m512 288.471v150.891c0 5.687-4.615 10.302-10.302 10.302h-123.395c45.421-39.312 72.339-99.392 88.111-161.192h45.586z" fill="#06b9ff"/><path d="m512 72.638v54.631h-512v-54.631c0-5.687 4.615-10.302 10.302-10.302h491.396c5.687 0 10.302 4.615 10.302 10.302z" fill="#aaaab2"/><path d="m512 72.638v54.631h-24.549c.845-28.289.237-51.19-.391-64.932h14.639c5.686-.001 10.301 4.614 10.301 10.301z" fill="#898993"/><g fill="#5f5f68"><path d="m41.255 102.531h-.116c-4.267 0-7.726-3.459-7.726-7.726s3.459-7.726 7.726-7.726h.116c4.267 0 7.726 3.459 7.726 7.726 0 4.266-3.459 7.726-7.726 7.726z"/><path d="m64.581 102.531h-.116c-4.267 0-7.726-3.459-7.726-7.726s3.459-7.726 7.726-7.726h.116c4.267 0 7.726 3.459 7.726 7.726 0 4.266-3.459 7.726-7.726 7.726z"/><path d="m87.907 102.531h-.116c-4.267 0-7.726-3.459-7.726-7.726s3.459-7.726 7.726-7.726h.116c4.267 0 7.726 3.459 7.726 7.726.001 4.266-3.458 7.726-7.726 7.726z"/><path d="m470.862 102.531h-14.377c-4.267 0-7.726-3.459-7.726-7.726s3.459-7.726 7.726-7.726h14.377c4.267 0 7.726 3.459 7.726 7.726 0 4.266-3.459 7.726-7.726 7.726z"/></g></g><g><g><g><path d="m167.242 205.613c0 11.674-4.046 22.402-10.815 30.851-9.055 11.309-22.976 18.554-38.59 18.554s-29.536-7.245-38.59-18.554c-6.769-8.449-10.815-19.178-10.815-30.851 0-27.288 22.118-49.405 49.405-49.405s49.405 22.118 49.405 49.405z" fill="#83f6ff"/><path d="m167.242 205.613c0 11.674-4.046 22.402-10.815 30.851-9.055 11.309-22.976 18.554-38.59 18.554-9.981 0-19.277-2.959-27.04-8.06 4.2 1.167 8.628 1.791 13.199 1.791 15.614 0 29.536-7.245 38.59-18.554 6.769-8.449 10.815-19.178 10.815-30.851 0-17.306-8.894-32.531-22.365-41.351 20.876 5.768 36.206 24.903 36.206 47.62z" fill="#22d0ff"/><path d="m156.427 236.464c-9.055 11.309-22.976 18.554-38.59 18.554-9.981 0-19.277-2.959-27.04-8.06-4.385-2.866-8.283-6.411-11.55-10.494 5.67-9.87 15.015-17.356 26.176-20.599-4.268-3.558-6.979-8.906-6.979-14.891 0-10.716 8.684-19.394 19.394-19.394s19.394 8.678 19.394 19.394c0 5.985-2.711 11.334-6.979 14.891 6.047 1.754 11.556 4.756 16.238 8.703 3.963 3.348 7.335 7.369 9.936 11.896z" fill="#d1d0d8"/><path d="m156.427 236.464c-9.055 11.309-22.976 18.554-38.59 18.554-9.981 0-19.277-2.959-27.04-8.06 4.2 1.167 8.628 1.791 13.199 1.791 15.614 0 29.536-7.245 38.59-18.554 1.427-1.779 2.73-3.656 3.904-5.627 3.964 3.348 7.336 7.369 9.937 11.896z" fill="#bdbcc4"/></g></g><g><g><path d="m443.569 369.369c0 11.674-4.046 22.402-10.815 30.851-9.055 11.309-22.976 18.554-38.59 18.554s-29.536-7.245-38.59-18.554c-6.769-8.449-10.815-19.178-10.815-30.851 0-27.288 22.118-49.405 49.405-49.405s49.405 22.117 49.405 49.405z" fill="#ff5677"/><path d="m443.569 369.369c0 11.673-4.046 22.402-10.815 30.851-9.055 11.309-22.976 18.554-38.59 18.554-9.981 0-19.277-2.959-27.04-8.06 4.2 1.167 8.628 1.791 13.199 1.791 15.614 0 29.536-7.245 38.59-18.554 6.769-8.449 10.815-19.178 10.815-30.851 0-17.306-8.894-32.531-22.365-41.351 20.876 5.768 36.206 24.903 36.206 47.62z" fill="#ff2953"/><path d="m432.754 400.22c-9.055 11.309-22.976 18.554-38.59 18.554-9.981 0-19.277-2.959-27.04-8.06-4.385-2.866-8.283-6.411-11.55-10.494 5.67-9.87 15.015-17.356 26.176-20.599-4.268-3.558-6.979-8.906-6.979-14.891 0-10.716 8.684-19.394 19.394-19.394s19.394 8.678 19.394 19.394c0 5.985-2.711 11.334-6.979 14.891 6.047 1.754 11.556 4.756 16.238 8.703 3.964 3.348 7.336 7.369 9.936 11.896z" fill="#d1d0d8"/><path d="m432.754 400.22c-9.055 11.309-22.976 18.554-38.59 18.554-9.981 0-19.277-2.959-27.04-8.06 4.2 1.167 8.628 1.791 13.199 1.791 15.614 0 29.536-7.245 38.59-18.554 1.427-1.779 2.73-3.656 3.904-5.627 3.965 3.348 7.337 7.369 9.937 11.896z" fill="#bdbcc4"/></g></g></g><g><path d="m381.025 240.016c-1.977 0-3.955-.755-5.463-2.263l-4.708-4.708c-6.764-6.764-6.764-17.77 0-24.534l20.203-20.203c6.764-6.764 17.77-6.764 24.534-.001l4.708 4.708c3.018 3.017 3.018 7.909 0 10.927-3.017 3.017-7.909 3.017-10.927 0l-4.708-4.708c-.738-.738-1.941-.739-2.682 0l-20.203 20.202c-.739.739-.739 1.942 0 2.682l4.708 4.708c3.018 3.017 3.018 7.909 0 10.927-1.508 1.508-3.485 2.263-5.462 2.263z" fill="#83f6ff"/><path d="m104.691 404.386c-1.977 0-3.955-.755-5.463-2.263l-4.708-4.708c-6.764-6.765-6.764-17.771 0-24.535l20.203-20.203c6.764-6.764 17.77-6.764 24.534 0l4.708 4.708c3.018 3.017 3.018 7.909 0 10.927-3.017 3.017-7.909 3.017-10.927 0l-4.708-4.708c-.739-.737-1.942-.739-2.682 0l-20.203 20.203c-.739.739-.739 1.942.001 2.682l4.707 4.707c3.018 3.017 3.018 7.909 0 10.927-1.508 1.508-3.485 2.263-5.462 2.263z" fill="#ff5677"/></g><g fill="#ff5677"><path d="m248.102 185.296h-36.743c-4.267 0-7.726-3.459-7.726-7.726s3.459-7.726 7.726-7.726h36.743c4.267 0 7.726 3.459 7.726 7.726s-3.459 7.726-7.726 7.726z"/><path d="m321.245 214.278h-33.309c-4.267 0-7.726-3.459-7.726-7.726s3.459-7.726 7.726-7.726h33.309c4.267 0 7.726 3.459 7.726 7.726 0 4.266-3.459 7.726-7.726 7.726z"/><path d="m263.898 214.278h-52.539c-4.267 0-7.726-3.459-7.726-7.726s3.459-7.726 7.726-7.726h52.539c4.267 0 7.726 3.459 7.726 7.726 0 4.266-3.459 7.726-7.726 7.726z"/><path d="m321.245 235.225h-109.886c-4.267 0-7.726-3.459-7.726-7.726s3.459-7.726 7.726-7.726h109.886c4.267 0 7.726 3.459 7.726 7.726s-3.459 7.726-7.726 7.726z"/></g><g fill="#089bff"><path d="m300.641 351.829h-36.743c-4.267 0-7.726-3.459-7.726-7.726s3.459-7.726 7.726-7.726h36.743c4.267 0 7.726 3.459 7.726 7.726s-3.459 7.726-7.726 7.726z"/><path d="m300.641 380.811h-109.886c-4.267 0-7.726-3.459-7.726-7.726s3.459-7.726 7.726-7.726h109.886c4.267 0 7.726 3.459 7.726 7.726.001 4.267-3.459 7.726-7.726 7.726z"/><path d="m256 401.758h-65.245c-4.267 0-7.726-3.459-7.726-7.726s3.459-7.726 7.726-7.726h65.245c4.267 0 7.726 3.459 7.726 7.726s-3.459 7.726-7.726 7.726z"/><path d="m300.641 401.758h-23.523c-4.267 0-7.726-3.459-7.726-7.726s3.459-7.726 7.726-7.726h23.523c4.267 0 7.726 3.459 7.726 7.726.001 4.267-3.459 7.726-7.726 7.726z"/></g></g></svg>