<svg height="512" viewBox="0 0 512 512" width="512" xmlns="http://www.w3.org/2000/svg"><g id="filled_outline" data-name="filled outline"><path d="m240 331.016 40 12.984 48-28.984 123.959-123.738 14.157 13.854a74 74 0 0 1 -1.557 106.168l-122.981 114.137-69.578 32z" fill="#fdc9a6"/><path d="m333.657 370.343a8 8 0 0 0 -11.314 0l-24 24a8 8 0 1 0 11.313 11.313l24-24a8 8 0 0 0 .001-11.313z" fill="#e6af89"/><path d="m148.135 27.74a102.481 102.481 0 0 1 81.984 40.992l25.507 34.01 25.508-34.01a102.481 102.481 0 0 1 81.984-40.992 102.48 102.48 0 0 1 99.42 77.625 125.339 125.339 0 0 1 -36.9 122.793l-170.012 155.842-170.009-155.842a125.339 125.339 0 0 1 -36.9-122.793 102.479 102.479 0 0 1 99.418-77.625z" fill="#cb2527"/><path d="m80.912 338.078 119.088 101.78 24 17.579 29.444 24.537a26 26 0 0 0 35.341-1.907l52.793-54.63-64.834-60.624 14.261-13.244-37.838-26.512a20 20 0 0 0 -11.476-3.62h-49.691l-110.759-97.489-7.941 9.152a74 74 0 0 0 7.612 104.978z" fill="#f6bb92"/><path d="m326.006 362.5-7.956 1.991a39.967 39.967 0 0 1 -33.692-6.827l38.905-35.664h10.737" fill="#e6af89"/><path d="m323.537 258.054-8.889 8a8 8 0 1 0 10.7 11.892l8.888-8a8 8 0 1 0 -10.7-11.892z" fill="#b22122"/><path d="m389.946 209.048a8 8 0 0 0 -11.3-.594l-32 28.8a8 8 0 1 0 10.7 11.892l32-28.8a8 8 0 0 0 .6-11.298z" fill="#b22122"/><g fill="#fdc9a6"><rect height="48" rx="16" transform="matrix(.758 .652 -.652 .758 367.578 -50.377)" width="32" x="235.742" y="446.639"/><rect height="48" rx="16" transform="matrix(.758 .652 -.652 .758 348.12 -39.598)" width="32" x="211.473" y="425.782"/><rect height="48" rx="16" transform="matrix(.758 .652 -.652 .758 328.662 -28.819)" width="32" x="187.205" y="404.925"/><rect height="48" rx="16" transform="matrix(.758 .652 -.652 .758 309.204 -18.04)" width="32" x="162.936" y="384.067"/><path d="m258.142 317.858-25.657 25.657a12 12 0 0 0 0 16.97l1.342 1.342a20 20 0 0 0 28.315-.032l17.858-17.937a39.936 39.936 0 0 0 38.049 10.63l9.951-2.488 3.279-1.394 4.721-38.606h-63.716a20 20 0 0 0 -14.142 5.858z"/></g><path d="m471.773 199.475-9.173-9.175a133.716 133.716 0 0 0 7.7-86.877 110.48 110.48 0 0 0 -195.566-39.491l-19.108 25.477-19.107-25.477a110.48 110.48 0 0 0 -195.565 39.492 133.285 133.285 0 0 0 29.6 120.8l-3.175 3.492c-.034.037-.068.076-.1.114a82 82 0 0 0 8.435 116.332l76.025 64.976a23.947 23.947 0 0 0 8.34 18.2 23.813 23.813 0 0 0 15.6 5.8c.17 0 .342-.016.512-.019a23.821 23.821 0 0 0 8.151 15.076 23.9 23.9 0 0 0 15.626 5.787c.164 0 .328-.009.492-.012a24 24 0 0 0 23.757 20.882c.17 0 .342-.016.512-.02a23.975 23.975 0 0 0 23.782 20.868 24.121 24.121 0 0 0 9.458-1.936 33.819 33.819 0 0 0 36.569-8.134l52.639-54.47 122.87-114.04a82 82 0 0 0 1.726-117.641zm-415.3-92.17a94.48 94.48 0 0 1 167.246-33.773l25.508 34.01a8 8 0 0 0 12.8 0l25.508-34.01a94.479 94.479 0 0 1 167.242 33.773 117.634 117.634 0 0 1 -15.421 92.349l-111.303 104.346h-55.769a27.82 27.82 0 0 0 -19.8 8.2l-2.5 2.5a28.062 28.062 0 0 0 -8.291-1.268h-46.674l-108.055-95.08a117.953 117.953 0 0 1 -30.488-111.047zm114.034 307.895a8.01 8.01 0 0 1 -.853-11.282l10.429-12.134a8 8 0 1 1 12.134 10.428l-10.428 12.135a8.01 8.01 0 0 1 -11.282.853zm24.269 20.857a8.01 8.01 0 0 1 -.853-11.282l10.429-12.135a8 8 0 1 1 12.134 10.429l-10.429 12.134a8 8 0 0 1 -11.281.853zm24.269 20.858a8 8 0 0 1 -.853-11.281l10.428-12.134a8 8 0 0 1 12.135 10.429l-10.428 12.134a8 8 0 0 1 -11.282.854zm24.269 20.857a8 8 0 0 1 -.852-11.282l10.429-12.134a8 8 0 1 1 12.133 10.429l-10.424 12.135a8.01 8.01 0 0 1 -11.286.854zm39.718-3.266a17.992 17.992 0 0 1 -9.753 5.221l3.879-4.514a23.983 23.983 0 0 0 -18.689-39.623 23.97 23.97 0 0 0 -24.258-20.871 23.993 23.993 0 0 0 -24.282-20.857 23.984 23.984 0 0 0 -41.981-12.507l-10.2 11.867-71.638-61.222a66 66 0 0 1 -6.839-93.578l2.79-3.068 104.654 92.093a8 8 0 0 0 5.285 1.99h43.25l-8.421 8.421a20.021 20.021 0 0 0 0 28.284l1.341 1.341a27.81 27.81 0 0 0 19.8 8.2h.03a27.821 27.821 0 0 0 19.812-8.245l.013-.014 62.349 58.3zm176.084-169.074-117.516 109.068-21.08-19.706 13.137-13.137a8 8 0 0 0 -11.314-11.314l-13.517 13.517-29.707-27.778 1.355-1.36a48.2 48.2 0 0 0 39.516 7.527l9.95-2.488a8 8 0 0 0 -3.88-15.522l-9.951 2.488a32.08 32.08 0 0 1 -30.427-8.5 8 8 0 0 0 -5.673-2.369h-.009a8 8 0 0 0 -5.669 2.356l-17.858 17.937a11.924 11.924 0 0 1 -8.491 3.534h-.014a11.92 11.92 0 0 1 -8.485-3.515l-1.341-1.341a4.007 4.007 0 0 1 0-5.658l25.658-25.656a11.919 11.919 0 0 1 8.484-3.515h58.933a7.994 7.994 0 0 0 5.471-2.164l114.431-107.279c.029-.028.059-.053.087-.081l4.614-4.326 4.639 4.639a66 66 0 0 1 -1.343 94.643z"/><path d="m320 280a7.973 7.973 0 0 0 5.35-2.054l8.888-8a8 8 0 1 0 -10.7-11.892l-8.889 8a8 8 0 0 0 5.351 13.946z"/><path d="m352 251.2a7.973 7.973 0 0 0 5.35-2.054l32-28.8a8 8 0 0 0 -10.7-11.892l-32 28.8a8 8 0 0 0 5.35 13.946z"/></g></svg>