<svg height="480pt" viewBox="0 0 480 480" width="480pt" xmlns="http://www.w3.org/2000/svg"><path d="m0 16h480v32h-480zm0 0" fill="#322f2b"/><path d="m0 32h480v16h-480zm0 0" fill="#413e39"/><path d="m32 112h192v368h-192zm0 0" fill="#48753e"/><path d="m192 416c-17.671875 0-32 14.328125-32 32h-64c0-17.671875-14.328125-32-32-32v-240c17.671875 0 32-14.328125 32-32h64c0 17.671875 14.328125 32 32 32zm0 0" fill="#86a63c"/><path d="m104 0h48v192h-48zm0 0" fill="#955425"/><path d="m104 0h24v192h-24zm0 0" fill="#b46734"/><path d="m152 264c-17.648438 0-32 14.351562-32 32 0 8.824219-7.175781 16-16 16s-16-7.175781-16-16 7.175781-16 16-16v-16c-14.863281 0-27.289062 10.230469-30.863281 24h-17.136719v16h17.136719c3.574219 13.769531 16 24 30.863281 24 17.648438 0 32-14.351562 32-32 0-8.824219 7.175781-16 16-16s16 7.175781 16 16-7.175781 16-16 16v16c14.863281 0 27.289062-10.230469 30.863281-24h17.136719v-16h-17.136719c-3.574219-13.769531-16-24-30.863281-24zm0 0" fill="#413e39"/><path d="m120 232h16v16h-16zm0 0" fill="#48753e"/><path d="m120 344h16v16h-16zm0 0" fill="#48753e"/><g fill="#86a63c"><path d="m184 136h16v16h-16zm0 0"/><path d="m56 136h16v16h-16zm0 0"/><path d="m56 440h16v16h-16zm0 0"/><path d="m184 440h16v16h-16zm0 0"/></g><path d="m256 112h192v368h-192zm0 0" fill="#48753e"/><path d="m416 416c-17.671875 0-32 14.328125-32 32h-64c0-17.671875-14.328125-32-32-32v-240c17.671875 0 32-14.328125 32-32h64c0 17.671875 14.328125 32 32 32zm0 0" fill="#86a63c"/><path d="m328 0h48v192h-48zm0 0" fill="#955425"/><path d="m328 0h24v192h-24zm0 0" fill="#b46734"/><path d="m376 264c-17.648438 0-32 14.351562-32 32 0 8.824219-7.175781 16-16 16s-16-7.175781-16-16 7.175781-16 16-16v-16c-14.863281 0-27.289062 10.230469-30.863281 24h-17.136719v16h17.136719c3.574219 13.769531 16 24 30.863281 24 17.648438 0 32-14.351562 32-32 0-8.824219 7.175781-16 16-16s16 7.175781 16 16-7.175781 16-16 16v16c14.863281 0 27.289062-10.230469 30.863281-24h17.136719v-16h-17.136719c-3.574219-13.769531-16-24-30.863281-24zm0 0" fill="#413e39"/><path d="m344 232h16v16h-16zm0 0" fill="#48753e"/><path d="m344 344h16v16h-16zm0 0" fill="#48753e"/><path d="m408 136h16v16h-16zm0 0" fill="#86a63c"/><path d="m280 136h16v16h-16zm0 0" fill="#86a63c"/><path d="m280 440h16v16h-16zm0 0" fill="#86a63c"/><path d="m408 440h16v16h-16zm0 0" fill="#86a63c"/></svg>