<svg id="Capa_1" enable-background="new 0 0 512 512" height="512" viewBox="0 0 512 512" width="512" xmlns="http://www.w3.org/2000/svg"><g><g><path d="m442.318 20.604v470.793c0 11.384-9.22 20.604-20.604 20.604h-331.429c-11.383 0-20.604-9.22-20.604-20.604v-470.793c.001-11.384 9.221-20.604 20.604-20.604h331.43c11.383 0 20.603 9.22 20.603 20.604z" fill="#e8e6ed"/><path d="m442.318 20.604v470.793c0 11.384-9.22 20.604-20.604 20.604h-174.573c139.538-159.102 138.497-425.188 134.005-512.001h40.568c11.384 0 20.604 9.22 20.604 20.604z" fill="#d1d0d8"/><g><g><circle cx="151.448" cy="92.09" fill="#ff5677" r="30.949"/><path d="m182.4 92.087c0 17.097-13.863 30.952-30.952 30.952-3.481 0-6.825-.577-9.949-1.638 12.208-4.143 20.994-15.697 20.994-29.313 0-13.608-8.786-25.162-20.994-29.305 3.124-1.061 6.469-1.638 9.949-1.638 17.089-.001 30.952 13.853 30.952 30.942z" fill="#ff2953"/></g><path d="m399.226 123.034c0 4.275-3.462 7.726-7.726 7.726h-188.019c-4.275 0-7.726-3.451-7.726-7.726 0-4.265 3.451-7.726 7.726-7.726h188.019c4.265 0 7.726 3.462 7.726 7.726z" fill="#898993"/></g><g><g><circle cx="151.448" cy="201.363" fill="#2fd92d" r="30.949"/><path d="m182.4 201.36c0 17.097-13.863 30.952-30.952 30.952-3.481 0-6.825-.577-9.949-1.638 12.208-4.143 20.994-15.697 20.994-29.313 0-13.608-8.786-25.162-20.994-29.305 3.124-1.061 6.469-1.638 9.949-1.638 17.089-.001 30.952 13.854 30.952 30.942z" fill="#1fbf33"/></g><path d="m399.226 232.316c0 4.265-3.462 7.726-7.726 7.726h-188.019c-4.275 0-7.726-3.462-7.726-7.726 0-4.275 3.451-7.726 7.726-7.726h188.019c4.265 0 7.726 3.451 7.726 7.726z" fill="#898993"/></g><g><g><circle cx="151.448" cy="310.637" fill="#22d0ff" r="30.949"/><path d="m182.4 310.634c0 17.097-13.863 30.952-30.952 30.952-3.481 0-6.825-.577-9.949-1.638 12.208-4.143 20.994-15.697 20.994-29.313 0-13.608-8.786-25.162-20.994-29.305 3.124-1.061 6.469-1.638 9.949-1.638 17.089-.001 30.952 13.853 30.952 30.942z" fill="#06b9ff"/></g><path d="m399.226 341.588c0 4.265-3.462 7.726-7.726 7.726h-188.019c-4.275 0-7.726-3.462-7.726-7.726 0-4.265 3.451-7.726 7.726-7.726h188.019c4.265-.001 7.726 3.46 7.726 7.726z" fill="#898993"/></g><g><g><circle cx="151.448" cy="419.91" fill="#ffb800" r="30.949"/><path d="m182.4 419.908c0 17.097-13.863 30.952-30.952 30.952-3.481 0-6.825-.577-9.949-1.638 12.208-4.143 20.994-15.697 20.994-29.313 0-13.608-8.786-25.162-20.994-29.305 3.124-1.061 6.469-1.638 9.949-1.638 17.089-.002 30.952 13.853 30.952 30.942z" fill="#ff9700"/></g><path d="m399.226 450.859c0 4.265-3.462 7.726-7.726 7.726h-188.019c-4.275 0-7.726-3.461-7.726-7.726s3.451-7.726 7.726-7.726h188.019c4.265-.001 7.726 3.461 7.726 7.726z" fill="#898993"/></g></g><g fill="#717177"><path d="m399.226 450.859c0 4.265-3.462 7.726-7.726 7.726h-104.831c3.173-5.089 6.253-10.24 9.22-15.453h95.611c4.265 0 7.726 3.462 7.726 7.727z"/><path d="m399.226 341.588c0 4.265-3.462 7.726-7.726 7.726h-53.6c1.772-5.13 3.482-10.281 5.12-15.453h48.48c4.265 0 7.726 3.461 7.726 7.727z"/><path d="m399.226 232.316c0 4.265-3.462 7.726-7.726 7.726h-25.322c.958-5.182 1.854-10.333 2.71-15.453h22.612c4.265.001 7.726 3.452 7.726 7.727z"/><path d="m391.5 130.761h-11.713c.371-5.233.69-10.384.969-15.453h10.744c4.265 0 7.726 3.462 7.726 7.726 0 4.276-3.461 7.727-7.726 7.727z"/></g></g></svg>